<svg width="12" height="38" viewBox="0 0 12 38" fill="none" xmlns="http://www.w3.org/2000/svg">
<path d="M2.46429 37.7857H0.821429C0.368 37.7857 0 37.4177 0 36.9643C0 36.5109 0.368 36.1429 0.821429 36.1429H2.46429C3.82293 36.1429 4.92857 35.0372 4.92857 33.6786V4.10714C4.92857 2.7485 3.82293 1.64286 2.46429 1.64286H0.821429C0.368 1.64286 0 1.27486 0 0.821429C0 0.368 0.368 0 0.821429 0H2.46429C4.72814 0 6.57143 1.84329 6.57143 4.10714V33.6786C6.57143 35.9424 4.72814 37.7857 2.46429 37.7857Z" fill="#EA80FC"/>
<path d="M10.6786 37.7857H9.03573C6.77187 37.7857 4.92859 35.9424 4.92859 33.6786V4.10714C4.92859 1.84329 6.77187 0 9.03573 0H10.6786C11.132 0 11.5 0.368 11.5 0.821429C11.5 1.27486 11.132 1.64286 10.6786 1.64286H9.03573C7.67709 1.64286 6.57145 2.7485 6.57145 4.10714V33.6786C6.57145 35.0372 7.67709 36.1429 9.03573 36.1429H10.6786C11.132 36.1429 11.5 36.5109 11.5 36.9643C11.5 37.4177 11.132 37.7857 10.6786 37.7857Z" fill="#EA80FC"/>
<path d="M9.03568 19.7143H2.46425C2.01082 19.7143 1.64282 19.3463 1.64282 18.8928C1.64282 18.4394 2.01082 18.0714 2.46425 18.0714H9.03568C9.48911 18.0714 9.85711 18.4394 9.85711 18.8928C9.85711 19.3463 9.48911 19.7143 9.03568 19.7143Z" fill="#EA80FC"/>
</svg>
